<svg width="42" height="23" viewBox="0 0 42 23" fill="none" xmlns="http://www.w3.org/2000/svg">
<path d="M26.3368 18.4C25.3368 17.8 25.0368 16.5 25.6368 15.5C26.2368 14.5 27.5368 14.2 28.5368 14.8C29.0368 15.1 29.5368 15.3 30.0368 15.5C30.5368 15.6 31.1368 15.7 31.6368 15.7C33.2368 15.7 34.7368 15 35.7368 14C36.8368 12.9 37.4368 11.5 37.4368 9.9C37.4368 8.3 36.7368 6.8 35.7368 5.8C34.6368 4.7 33.2368 4.1 31.6368 4.1C30.4368 4.1 29.3368 4.5 28.3368 5.1C27.4368 5.7 26.6368 6.7 26.1368 7.7L25.6368 9C25.6368 9.1 25.5368 9.2 25.5368 9.2L21.4368 20.2C21.2368 20.6 20.9368 21 20.5368 21.3C19.5368 21.9 18.2368 21.5 17.7368 20.5L14.3368 14.5L10.8368 20.5C10.6368 20.9 10.2368 21.2 9.83682 21.4C8.73682 21.8 7.53682 21.3 7.13682 20.2L0.136823 3C-0.263177 1.9 0.236823 0.7 1.33682 0.3C2.43682 -0.1 3.63682 0.4 4.03682 1.4L9.43682 14.9L12.6368 9.4C13.2368 8.4 14.4368 8.1 15.4368 8.7C15.8368 8.9 16.0368 9.2 16.2368 9.6L19.1368 14.8L21.7368 7.9C21.7368 7.8 21.8368 7.6 21.8368 7.5C21.8368 7.4 21.8368 7.2 21.8368 7C21.8368 6.4 21.6368 5.8 21.4368 5.3C21.1368 4.8 20.7368 4.3 20.2368 4C19.2368 3.4 18.9368 2.1 19.5368 1.2C20.1368 0.2 21.4368 -0.1 22.3368 0.5C23.3368 1.1 24.1368 1.9 24.7368 2.8C25.1368 2.4 25.6368 2 26.0368 1.7C27.6368 0.6 29.6368 0 31.6368 0C34.4368 0 36.9368 1.1 38.7368 2.9C40.5368 4.7 41.6368 7.2 41.6368 10C41.6368 12.8 40.5368 15.3 38.7368 17.1C36.9368 18.9 34.4368 20 31.6368 20C30.7368 20 29.8368 19.9 28.9368 19.6C28.0368 19.3 27.1368 18.9 26.3368 18.4ZM9.93682 3.1C9.43682 2.1 9.83682 0.8 10.8368 0.3C11.8368 -0.2 13.1368 0.2 13.6368 1.2L15.0368 4.1C15.5368 5.1 15.1368 6.4 14.1368 6.9C13.1368 7.4 11.8368 7 11.3368 6L9.93682 3.1Z" transform="translate(0 0.509705)" fill="#27AAE1"/>
</svg>
