<svg width="170" height="141" viewBox="0 0 170 141" fill="none" xmlns="http://www.w3.org/2000/svg">
<circle cx="52" cy="52" r="48" transform="translate(33)" stroke="url(#paint0_angular)" stroke-width="8"/>
<circle cx="36" cy="36" r="32" transform="translate(49 88) scale(1 -1)" stroke="url(#paint1_angular)" stroke-width="8"/>
<path d="M59.3652 8.91797C59.3652 9.92969 59.0189 10.709 58.3262 11.2559C57.638 11.7982 56.6514 12.0693 55.3662 12.0693H54.1904V16H53.0283V6.00586H55.6191C58.1165 6.00586 59.3652 6.97656 59.3652 8.91797ZM54.1904 11.0713H55.2363C56.2663 11.0713 57.0114 10.9049 57.4717 10.5723C57.932 10.2396 58.1621 9.70638 58.1621 8.97266C58.1621 8.31185 57.9456 7.81966 57.5127 7.49609C57.0798 7.17253 56.4053 7.01074 55.4893 7.01074H54.1904V11.0713ZM64.7109 8.37109C65.0436 8.37109 65.3421 8.39844 65.6064 8.45312L65.4492 9.50586C65.1393 9.4375 64.8659 9.40332 64.6289 9.40332C64.0228 9.40332 63.5033 9.64941 63.0703 10.1416C62.6419 10.6338 62.4277 11.2467 62.4277 11.9805V16H61.293V8.50781H62.2295L62.3594 9.89551H62.4141C62.6921 9.40788 63.027 9.0319 63.4189 8.76758C63.8109 8.50326 64.2415 8.37109 64.7109 8.37109ZM73.4746 12.2471C73.4746 13.4684 73.167 14.4232 72.5518 15.1113C71.9365 15.7949 71.0866 16.1367 70.002 16.1367C69.332 16.1367 68.7373 15.9795 68.2178 15.665C67.6982 15.3506 67.2972 14.8994 67.0146 14.3115C66.7321 13.7236 66.5908 13.0355 66.5908 12.2471C66.5908 11.0257 66.8962 10.0755 67.5068 9.39648C68.1175 8.71289 68.9652 8.37109 70.0498 8.37109C71.098 8.37109 71.9297 8.71973 72.5449 9.41699C73.1647 10.1143 73.4746 11.0576 73.4746 12.2471ZM67.7666 12.2471C67.7666 13.2041 67.958 13.9333 68.3408 14.4346C68.7236 14.9359 69.2865 15.1865 70.0293 15.1865C70.7721 15.1865 71.335 14.9382 71.7178 14.4414C72.1051 13.9401 72.2988 13.2087 72.2988 12.2471C72.2988 11.2946 72.1051 10.5723 71.7178 10.0801C71.335 9.58333 70.7676 9.33496 70.0156 9.33496C69.2728 9.33496 68.7122 9.57878 68.334 10.0664C67.9557 10.554 67.7666 11.2809 67.7666 12.2471ZM78.4648 16.1367C77.3802 16.1367 76.5394 15.804 75.9424 15.1387C75.3499 14.4688 75.0537 13.5231 75.0537 12.3018C75.0537 11.0485 75.3545 10.0801 75.9561 9.39648C76.5622 8.71289 77.4235 8.37109 78.54 8.37109C78.9001 8.37109 79.2601 8.40983 79.6201 8.4873C79.9801 8.56478 80.2627 8.65592 80.4678 8.76074L80.1191 9.72461C79.8685 9.62435 79.5951 9.54232 79.2988 9.47852C79.0026 9.41016 78.7406 9.37598 78.5127 9.37598C76.9906 9.37598 76.2295 10.3467 76.2295 12.2881C76.2295 13.2087 76.4141 13.915 76.7832 14.4072C77.1569 14.8994 77.7083 15.1455 78.4375 15.1455C79.0618 15.1455 79.7021 15.0111 80.3584 14.7422V15.7471C79.8571 16.0068 79.2259 16.1367 78.4648 16.1367ZM85.3076 16.1367C84.2002 16.1367 83.3252 15.7995 82.6826 15.125C82.0446 14.4505 81.7256 13.514 81.7256 12.3154C81.7256 11.1077 82.0218 10.1484 82.6143 9.4375C83.2113 8.72656 84.0111 8.37109 85.0137 8.37109C85.9525 8.37109 86.6953 8.68099 87.2422 9.30078C87.7891 9.91602 88.0625 10.7295 88.0625 11.7412V12.459H82.9014C82.9242 13.3385 83.1452 14.0062 83.5645 14.4619C83.9883 14.9176 84.583 15.1455 85.3486 15.1455C86.1553 15.1455 86.9528 14.9769 87.7412 14.6396V15.6514C87.3402 15.8245 86.9596 15.9476 86.5996 16.0205C86.2441 16.098 85.8135 16.1367 85.3076 16.1367ZM85 9.32129C84.3984 9.32129 83.9176 9.51725 83.5576 9.90918C83.2021 10.3011 82.9925 10.8434 82.9287 11.5361H86.8457C86.8457 10.8206 86.6862 10.2738 86.3672 9.89551C86.0482 9.5127 85.5924 9.32129 85 9.32129ZM94.8369 13.9561C94.8369 14.6533 94.5771 15.1911 94.0576 15.5693C93.5381 15.9476 92.8089 16.1367 91.8701 16.1367C90.8766 16.1367 90.1019 15.9795 89.5459 15.665V14.6123C89.9059 14.7946 90.291 14.9382 90.7012 15.043C91.1159 15.1478 91.5146 15.2002 91.8975 15.2002C92.4899 15.2002 92.9456 15.1068 93.2646 14.9199C93.5837 14.7285 93.7432 14.4391 93.7432 14.0518C93.7432 13.7601 93.6156 13.5117 93.3604 13.3066C93.1097 13.097 92.6175 12.8509 91.8838 12.5684C91.1865 12.3086 90.6898 12.083 90.3936 11.8916C90.1019 11.6956 89.8831 11.4746 89.7373 11.2285C89.596 10.9824 89.5254 10.6885 89.5254 10.3467C89.5254 9.736 89.7738 9.25521 90.2705 8.9043C90.7673 8.54883 91.4486 8.37109 92.3145 8.37109C93.1211 8.37109 93.9095 8.53516 94.6797 8.86328L94.2764 9.78613C93.5244 9.47624 92.8431 9.32129 92.2324 9.32129C91.6947 9.32129 91.2891 9.4056 91.0156 9.57422C90.7422 9.74284 90.6055 9.97526 90.6055 10.2715C90.6055 10.472 90.6556 10.6429 90.7559 10.7842C90.8607 10.9255 91.027 11.0599 91.2549 11.1875C91.4827 11.3151 91.9202 11.4997 92.5674 11.7412C93.4561 12.0648 94.0553 12.3906 94.3652 12.7188C94.6797 13.0469 94.8369 13.4593 94.8369 13.9561ZM101.522 13.9561C101.522 14.6533 101.263 15.1911 100.743 15.5693C100.224 15.9476 99.4945 16.1367 98.5557 16.1367C97.5622 16.1367 96.7874 15.9795 96.2314 15.665V14.6123C96.5915 14.7946 96.9766 14.9382 97.3867 15.043C97.8014 15.1478 98.2002 15.2002 98.583 15.2002C99.1755 15.2002 99.6312 15.1068 99.9502 14.9199C100.269 14.7285 100.429 14.4391 100.429 14.0518C100.429 13.7601 100.301 13.5117 100.046 13.3066C99.7952 13.097 99.3031 12.8509 98.5693 12.5684C97.8721 12.3086 97.3753 12.083 97.0791 11.8916C96.7874 11.6956 96.5687 11.4746 96.4229 11.2285C96.2816 10.9824 96.2109 10.6885 96.2109 10.3467C96.2109 9.736 96.4593 9.25521 96.9561 8.9043C97.4528 8.54883 98.1341 8.37109 99 8.37109C99.8066 8.37109 100.595 8.53516 101.365 8.86328L100.962 9.78613C100.21 9.47624 99.5286 9.32129 98.918 9.32129C98.3802 9.32129 97.9746 9.4056 97.7012 9.57422C97.4277 9.74284 97.291 9.97526 97.291 10.2715C97.291 10.472 97.3411 10.6429 97.4414 10.7842C97.5462 10.9255 97.7126 11.0599 97.9404 11.1875C98.1683 11.3151 98.6058 11.4997 99.2529 11.7412C100.142 12.0648 100.741 12.3906 101.051 12.7188C101.365 13.0469 101.522 13.4593 101.522 13.9561ZM104.51 16H103.375V8.50781H104.51V16ZM103.279 6.47754C103.279 6.21777 103.343 6.02865 103.471 5.91016C103.598 5.78711 103.758 5.72559 103.949 5.72559C104.132 5.72559 104.289 5.78711 104.421 5.91016C104.553 6.0332 104.619 6.22233 104.619 6.47754C104.619 6.73275 104.553 6.92415 104.421 7.05176C104.289 7.1748 104.132 7.23633 103.949 7.23633C103.758 7.23633 103.598 7.1748 103.471 7.05176C103.343 6.92415 103.279 6.73275 103.279 6.47754ZM112.043 16V11.1533C112.043 10.5426 111.904 10.0869 111.626 9.78613C111.348 9.48535 110.913 9.33496 110.32 9.33496C109.536 9.33496 108.962 9.54688 108.598 9.9707C108.233 10.3945 108.051 11.0941 108.051 12.0693V16H106.916V8.50781H107.839L108.023 9.5332H108.078C108.311 9.16406 108.636 8.87923 109.056 8.67871C109.475 8.47363 109.942 8.37109 110.457 8.37109C111.359 8.37109 112.038 8.58984 112.494 9.02734C112.95 9.46029 113.178 10.1553 113.178 11.1123V16H112.043ZM121.647 8.50781V9.22559L120.26 9.38965C120.387 9.54915 120.501 9.75879 120.602 10.0186C120.702 10.2738 120.752 10.5632 120.752 10.8867C120.752 11.6204 120.501 12.2061 120 12.6436C119.499 13.0811 118.811 13.2998 117.936 13.2998C117.712 13.2998 117.503 13.2816 117.307 13.2451C116.824 13.5003 116.582 13.8216 116.582 14.209C116.582 14.4141 116.666 14.5667 116.835 14.667C117.004 14.7627 117.293 14.8105 117.703 14.8105H119.029C119.84 14.8105 120.463 14.9814 120.896 15.3232C121.333 15.665 121.552 16.1618 121.552 16.8135C121.552 17.6429 121.219 18.2741 120.554 18.707C119.888 19.1445 118.918 19.3633 117.642 19.3633C116.662 19.3633 115.905 19.181 115.372 18.8164C114.843 18.4518 114.579 17.9368 114.579 17.2715C114.579 16.8158 114.725 16.4215 115.017 16.0889C115.308 15.7562 115.718 15.5306 116.247 15.4121C116.056 15.3255 115.894 15.1911 115.762 15.0088C115.634 14.8265 115.57 14.6146 115.57 14.373C115.57 14.0996 115.643 13.8604 115.789 13.6553C115.935 13.4502 116.165 13.252 116.479 13.0605C116.092 12.901 115.775 12.6299 115.529 12.2471C115.288 11.8643 115.167 11.4268 115.167 10.9346C115.167 10.1143 115.413 9.48307 115.905 9.04102C116.397 8.5944 117.095 8.37109 117.997 8.37109C118.389 8.37109 118.742 8.41667 119.057 8.50781H121.647ZM115.673 17.2578C115.673 17.6634 115.844 17.971 116.186 18.1807C116.527 18.3903 117.017 18.4951 117.655 18.4951C118.608 18.4951 119.312 18.3516 119.768 18.0645C120.228 17.7819 120.458 17.3968 120.458 16.9092C120.458 16.5036 120.333 16.221 120.082 16.0615C119.831 15.9066 119.36 15.8291 118.667 15.8291H117.307C116.792 15.8291 116.391 15.9521 116.104 16.1982C115.816 16.4443 115.673 16.7975 115.673 17.2578ZM116.288 10.9072C116.288 11.4313 116.436 11.8278 116.732 12.0967C117.029 12.3656 117.441 12.5 117.97 12.5C119.077 12.5 119.631 11.9622 119.631 10.8867C119.631 9.76107 119.07 9.19824 117.949 9.19824C117.416 9.19824 117.006 9.3418 116.719 9.62891C116.432 9.91602 116.288 10.3421 116.288 10.9072Z" transform="translate(0 120)" fill="#666666"/>
<defs>
<radialGradient id="paint0_angular" cx="0.5" cy="0.5" r="0.5" gradientUnits="userSpaceOnUse" gradientTransform="translate(104) scale(104) rotate(90)">
<stop stop-color="#9BB36B"/>
<stop offset="1" stop-color="#9BB36B" stop-opacity="0"/>
</radialGradient>
<radialGradient id="paint1_angular" cx="0.5" cy="0.5" r="0.5" gradientUnits="userSpaceOnUse" gradientTransform="translate(72) scale(72) rotate(90)">
<stop stop-color="white"/>
<stop offset="1" stop-color="white" stop-opacity="0"/>
</radialGradient>
</defs>
</svg>
