<svg width="35" height="27" viewBox="0 0 35 27" fill="none" xmlns="http://www.w3.org/2000/svg">
<path d="M4.4 3.9V2.1C4.5 1.5 4 1 3.5 1C3.4 1 3.4 1 3.3 1C2.9 1 2.5 1.2 2.3 1.5C2.1 1.2 1.7 1 1.4 1C1.1 1 0.700002 1.1 0.600002 1.4V1H-7.62939e-07V3.8H0.600002V2.2C0.600002 1.8 0.8 1.5 1.2 1.5H1.3C1.7 1.5 1.9 1.8 1.9 2.2V3.8H2.5V2.2C2.5 1.8 2.7 1.5 3.1 1.5H3.2C3.6 1.5 3.8 1.8 3.8 2.2V3.8H4.4V3.9ZM13.6 1.1H12.6V0.299999H12V1.1H11.4V1.6H12V2.9C12 3.5 12.2 3.9 12.9 3.9C13.2 3.9 13.4 3.8 13.7 3.7L13.5 3.2C13.3 3.3 13.2 3.3 13 3.3C12.8 3.3 12.6 3.2 12.6 2.9V2.8V1.5H13.6V1.1ZM18.8 1C18.5 1 18.2 1.1 18 1.4V1H17.4V3.8H18V2.2C18 1.7 18.2 1.4 18.6 1.4C18.7 1.4 18.9 1.4 19 1.5L19.2 1C19 1 18.9 1 18.8 1ZM10.9 1.3C10.6 1.1 10.2 1 9.8 1C9.1 1 8.7 1.3 8.7 1.9C8.7 2.4 9 2.6 9.6 2.7H9.9C10.2 2.8 10.4 2.9 10.4 3C10.4 3.2 10.2 3.4 9.7 3.4C9.4 3.4 9 3.3 8.8 3.1L8.5 3.5C8.9 3.7 9.3 3.9 9.7 3.9C10.5 3.9 11 3.5 11 3C11 2.5 10.6 2.3 10 2.2H9.7C9.4 2.2 9.2 2.1 9.2 1.9C9.2 1.7 9.4 1.5 9.8 1.5C10.1 1.5 10.4 1.6 10.7 1.7L10.9 1.3ZM19.4 2.5C19.4 3.3 19.9 3.9 20.7 4C20.8 4 20.8 4 20.9 4C21.3 4 21.6 3.9 21.9 3.7L21.6 3.3C21.4 3.5 21.1 3.6 20.9 3.6C20.4 3.6 20 3.1 20 2.6C20 2.1 20.4 1.8 20.9 1.7C21.2 1.7 21.4 1.8 21.6 2L21.9 1.6C21.6 1.4 21.3 1.3 20.9 1.3C20.2 1.2 19.5 1.7 19.4 2.4C19.4 2.3 19.4 2.4 19.4 2.5ZM15.5 1C14.7 1 14.1 1.6 14.1 2.5C14.1 3.3 14.6 3.9 15.4 4C15.5 4 15.5 4 15.6 4C16 4 16.4 3.9 16.7 3.6L16.4 3.2C16.2 3.4 15.9 3.5 15.6 3.5C15.2 3.5 14.8 3.2 14.8 2.8H16.9V2.5C16.8 1.6 16.3 1 15.5 1ZM15.5 1.5C15.9 1.5 16.2 1.8 16.2 2.2H14.7C14.7 1.8 15.1 1.5 15.5 1.5ZM7.9 2.5V1.1H7.3V1.5C7.1 1.2 6.7 1.1 6.4 1.1C5.6 1.1 4.9 1.8 4.9 2.6C4.9 3.4 5.6 4.1 6.4 4.1C6.8 4.1 7.1 4 7.3 3.7V4.1H7.9V2.5ZM5.6 2.5C5.6 2 6.1 1.6 6.5 1.7C7 1.7 7.4 2.2 7.3 2.6C7.3 3.1 6.9 3.4 6.4 3.4C6 3.4 5.6 3 5.6 2.5ZM27.2 1C26.9 1 26.6 1.1 26.4 1.4V1H25.8V3.8H26.4V2.2C26.4 1.7 26.6 1.4 27 1.4C27.1 1.4 27.3 1.4 27.4 1.5L27.6 1C27.5 1 27.4 1 27.2 1ZM31.7 3.5H31.8C31.8 3.5 31.9 3.5 31.9 3.6L32 3.7V3.8V3.9C32 3.9 32 4 31.9 4L31.8 4.1H31.7H31.6C31.6 4.1 31.5 4.1 31.5 4L31.4 3.9V3.8V3.7C31.4 3.7 31.4 3.6 31.5 3.6L31.6 3.5H31.7ZM31.7 4C31.8 4 31.8 4 31.7 4C31.8 4 31.8 3.9 31.8 3.9L31.9 3.8V3.7V3.6C31.9 3.6 31.9 3.5 31.8 3.5H31.7H31.6C31.6 3.5 31.5 3.5 31.5 3.6L31.4 3.7V3.8V3.9C31.4 3.9 31.4 4 31.5 4H31.7ZM31.8 3.6C31.9 3.7 31.9 3.7 31.9 3.7C31.9 3.7 31.9 3.7 31.9 3.8C31.9 3.8 31.9 3.8 31.8 3.8L31.9 3.9H31.8L31.7 3.8V3.9H31.6V3.6H31.8ZM25.1 2.5V1.1H24.5V1.5C24.3 1.2 23.9 1.1 23.6 1.1C22.8 1.1 22.1 1.8 22.1 2.6C22.1 3.4 22.8 4.1 23.6 4.1C24 4.1 24.3 4 24.5 3.7V4.1H25.1V2.5ZM22.8 2.5C22.8 2 23.3 1.6 23.7 1.7C24.2 1.7 24.6 2.2 24.5 2.6C24.5 3.1 24.1 3.4 23.6 3.4C23.1 3.4 22.8 3 22.8 2.5ZM30.7 2.5V0H30.2V1.5C30 1.2 29.6 1.1 29.3 1.1C28.5 1.1 27.8 1.8 27.8 2.6C27.8 3.4 28.5 4.1 29.3 4.1C29.7 4.1 30 4 30.2 3.7V4.1H30.8V2.5H30.7ZM28.5 2.5C28.5 2 29 1.6 29.4 1.7C29.9 1.7 30.3 2.2 30.2 2.6C30.2 3.1 29.8 3.4 29.3 3.4C28.9 3.4 28.5 3 28.5 2.5Z" transform="translate(1.75195 22.5097)" fill="#353535"/>
<path d="M10.2 0H0V16.6H10.2V0Z" transform="translate(12.052 2.30971)" fill="#EE6740"/>
<path d="M13.052 10.5097C13.052 7.3097 14.552 4.2097 17.052 2.2097C12.452 -1.2903 5.85199 -0.590299 2.25199 4.0097C-1.34801 8.6097 -0.548011 15.2097 4.05199 18.8097C5.95199 20.3097 8.25199 21.1097 10.552 21.1097C12.952 21.1097 15.152 20.3097 17.052 18.8097C14.552 16.8097 13.052 13.8097 13.052 10.5097Z" fill="#D74E43"/>
<path d="M0.199997 0.5V0.100001H0.300003V3.8147e-07H0V0.100001H0.0999985L0.199997 0.5ZM0.900002 0.5V0.100001H0.800003L0.699997 0.4L0.599998 0.100001H0.5V0.5H0.599998V0.199999L0.699997 0.5H0.800003L0.900002 0.199999V0.5Z" transform="translate(32.952 16.6097)" fill="#EF9D3D"/>
<path d="M17.1 10.452C17.1 16.252 12.4 20.952 6.5 20.952C4.1 20.952 1.9 20.152 -1.52588e-06 18.752C4.6 15.152 5.4 8.45199 1.7 3.95199C1.2 3.35199 0.599998 2.75199 -1.52588e-06 2.25199C4.6 -1.34801 11.2 -0.54801 14.8 4.05199C16.3 5.85199 17.1 8.15199 17.1 10.452Z" transform="translate(17.052 0.0577087)" fill="#EF9D3D"/>
</svg>
