<svg width="46" height="15" viewBox="0 0 46 15" fill="none" xmlns="http://www.w3.org/2000/svg">
<path d="M17.2 0.3L11.3 14.4H7.4L4.5 3.1C4.3 2.4 4.2 2.2 3.6 1.9C2.5 1.3 1.2 0.9 -1.52588e-06 0.7L0.0999969 0.3H6.3C7.1 0.3 7.8 0.9 8 1.7L9.5 9.8L13.3 0.2H17.2V0.3ZM32.3 9.8C32.3 6.1 27.2 5.9 27.2 4.2C27.2 3.7 27.7 3.2 28.8 3C30 2.9 31.3 3.1 32.4 3.6L33 0.6C31.9 0.2 30.8 1.90735e-07 29.6 1.90735e-07C26 1.90735e-07 23.5 1.9 23.4 4.6C23.4 6.6 25.2 7.8 26.6 8.4C28 9.1 28.5 9.6 28.5 10.1C28.5 11 27.3 11.5 26.3 11.5C25 11.5 23.7 11.2 22.5 10.6L21.8 13.7C23.1 14.2 24.5 14.5 25.9 14.4C29.8 14.6 32.3 12.7 32.3 9.8ZM41.8 14.4H45.2L42.3 0.3H39.2C38.5 0.3 37.9 0.7 37.6 1.3L32.1 14.3H35.9L36.6 12.2H41.3L41.8 14.4ZM37.7 9.4L39.6 4.1L40.7 9.4H37.7ZM22.4 0.3L19.4 14.4H15.8L18.8 0.3H22.4Z" transform="translate(0 0.309692)" fill="#393F6B"/>
</svg>
