<svg width="54" height="40" viewBox="0 0 54 40" fill="none" xmlns="http://www.w3.org/2000/svg">
<g id="new card">
<rect id="Rectangle 3" width="50" height="36" rx="4" transform="translate(0 4)" fill="#56CCF2"/>
<path id="Intersect" fill-rule="evenodd" clip-rule="evenodd" d="M17.1223 36C7.21924 33.043 0 23.8645 0 13C0 8.20918 1.40375 3.74623 3.82233 0H26C28.2092 0 30 1.79086 30 4V32C30 34.2091 28.2092 36 26 36H17.1223Z" transform="translate(20 4)" fill="white" fill-opacity="0.1"/>
<rect id="Rectangle 4" width="7" height="3" rx="1.5" transform="translate(4 26)" fill="white"/>
<rect id="Rectangle 4.4" width="17" height="3" rx="1.5" transform="translate(4 32)" fill="white"/>
<rect id="Rectangle 4.5" width="8" height="3" rx="1.5" transform="translate(30 32)" fill="white"/>
<rect id="Rectangle 4.1" width="7" height="3" rx="1.5" transform="translate(13 26)" fill="white"/>
<rect id="Rectangle 4.2" width="7" height="3" rx="1.5" transform="translate(22 26)" fill="white"/>
<rect id="Rectangle 4.3" width="7" height="3" rx="1.5" transform="translate(31 26)" fill="white"/>
<path id="Star" d="M10 0L11.5556 8.44437L20 10L11.5556 11.5556L10 20L8.44437 11.5556L0 10L8.44437 8.44437L10 0Z" transform="translate(34)" fill="#FFF4BF"/>
</g>
</svg>
